<?xml version="1.0" encoding="UTF-8"?>
<svg id="Layer_2" data-name="Layer 2" xmlns="http://www.w3.org/2000/svg" viewBox="0 0 354.63 293.13">
  <defs>
    <style>
      .cls-1 {
        fill: #f1f2f2;
        stroke-width: 0px;
      }
    </style>
  </defs>
  <path class="cls-1" d="m211.25,28.28c66.65,0,120.87,54.22,120.87,120.87s-54.22,120.87-120.87,120.87-120.87-54.22-120.87-120.87S144.6,28.28,211.25,28.28m0-13.53c-74.23,0-134.4,60.17-134.4,134.4s60.17,134.4,134.4,134.4,134.4-60.17,134.4-134.4S285.48,14.75,211.25,14.75h0Z"/>
  <path class="cls-1" d="m245.49,132.55s-12.99-21.85-37.98-18.28c-26.07,3.72-45.55,22.59-74.35,34.76-86.9,36.72-122.46-.46-122.46-.46,0,0,35.91,22.31,117.4-37.75,43.34-31.95,102.71-47.95,117.4,21.73Z"/>
  <path class="cls-1" d="m333.88,208s-130.41,20.5-112.57-74.4c0,0,26.93,57.32,112.57,74.4Z"/>
</svg>