<?xml version="1.0" encoding="UTF-8"?>
<svg id="Layer_2" data-name="Layer 2" xmlns="http://www.w3.org/2000/svg" viewBox="0 0 638.71 142.69">
  <defs>
    <style>
      .cls-1 {
        fill: #f1f2f2;
        stroke-width: 0px;
      }
    </style>
  </defs>
  <g>
    <path class="cls-1" d="m87.75,24.94c25.59,0,46.41,20.82,46.41,46.41s-20.82,46.41-46.41,46.41-46.41-20.82-46.41-46.41,20.82-46.41,46.41-46.41m0-5.19c-28.5,0-51.6,23.1-51.6,51.6s23.1,51.6,51.6,51.6,51.6-23.1,51.6-51.6-23.1-51.6-51.6-51.6h0Z"/>
    <path class="cls-1" d="m100.9,64.97s-4.99-8.39-14.58-7.02c-10.01,1.43-17.49,8.67-28.55,13.35-33.36,14.1-47.02-.18-47.02-.18,0,0,13.79,8.57,45.07-14.49,16.64-12.27,39.43-18.41,45.07,8.34Z"/>
    <path class="cls-1" d="m134.83,93.94s-50.07,7.87-43.22-28.56c0,0,10.34,22.01,43.22,28.56Z"/>
  </g>
  <g>
    <g>
      <path class="cls-1" d="m288.43,62.94c7.64,0,13.85,6.21,13.85,13.85s-6.21,13.85-13.85,13.85-13.85-6.21-13.85-13.85,6.21-13.85,13.85-13.85m0-12.9c-14.77,0-26.75,11.97-26.75,26.75s11.97,26.75,26.75,26.75,26.75-11.97,26.75-26.75-11.97-26.75-26.75-26.75h0Z"/>
      <path class="cls-1" d="m222.92,64.83c-3.68-9.52-11.51-14.28-23.48-14.28h-28.94s.32,11.87,11.68,11.87h15.17c3.34,0,5.94.17,7.81.51,4.1,1.48,6.16,4.08,6.16,7.81h-23.93l-3.11.25c-1.85.11-4.92,1.28-7.65,3.51-1.18.9-2.16,1.92-2.95,3.08-2.22,3.02-3.53,7.07-2.41,12.14,1.46,6.6,5.58,9.85,9.29,11.45,1.82.88,3.77,1.38,5.87,1.5.59.05.96.06.96.06h36.5v-31.99c0-1.9-.32-3.87-.95-5.9Zm-32.94,26.02c-4.44-.17-6.66-1.5-6.66-4v-.51c.51-2.5,2.18-3.75,5.01-3.75h22.98v4.7c0,2.16-1.18,3.34-3.55,3.55h-17.77Z"/>
      <path class="cls-1" d="m250.67,102.61v-61c0-.55-.05-1.1-.13-1.66-1.26-9.5-13.14-11.12-13.14-11.12v60.54c0,9.98,7.97,12.61,13.27,13.24Z"/>
      <path class="cls-1" d="m370.27,57.28c-4.91-4.85-12.29-6.6-16.81-6.6l.02.02c-.14,0-.27-.02-.41-.02-3.34,0-6.81.7-10.41,2.09-10.28,5.02-15.51,12.88-15.72,23.58h-.02s0,.67,0,.67v15.04c0,7.27,5.79,10.73,12.68,10.73v-24c.03-1.71.25-5.67,1.61-8.53.25-.47.52-.93.8-1.35,1.83-2.58,4.17-4.56,7.22-5.4.03,0,.06-.01.09-.02.47-.13.95-.22,1.46-.29.6-.08,1.22-.13,1.86-.13l2.8.37c3.27.84,6.44,3.01,8.26,5.62.26.39.51.78.72,1.2.06.11.11.22.16.34.87,1.86,1.32,4,1.32,6.44v16.38c0,3.65,3.28,9.75,11.55,9.75h1.23v-27.96c0-7.8-3.5-13.05-8.4-17.9Z"/>
    </g>
    <g>
      <path class="cls-1" d="m430.2,70.29h-17.39c-2.37-.25-3.55-1.35-3.55-3.3v-.44c0-1.9,1.18-3,3.55-3.3h25.07l.25-.02c4.01-.15,10.01-1.47,11.52-12.61h-37.28c-.22,0-.44.02-.66.03,0,0,.01-.02.01-.02-1.78,0-3.64.4-5.42,1.14-.05.02-.1.03-.15.05-.05.03-.09.06-.14.09-2.72,1.2-5.24,3.2-7.02,5.83-.11.15-.2.3-.3.45-.09.15-.18.3-.27.45-1.04,1.68-1.66,3.5-1.87,5.46-.09.66-.15,1.34-.15,2.04,0,1.94.28,3.79.81,5.51.02.1.03.19.06.29.05.11.1.22.15.33,1.39,3.96,4.23,7.16,8.47,8.98.15.07.31.14.47.2.22.09.45.17.68.26.44.16.88.3,1.34.42.05.01.1.03.16.05.6.16,1.21.29,1.85.4.04,0,.08.01.13.02.56.09,1.15.16,1.74.21.14.01.27.02.41.03.65.05,1.32.08,2.01.08h17.39c2.41,0,3.81.97,4.19,2.92v1.65c-.68,1.78-2.26,2.67-4.76,2.67h-24.5c-.86,0-1.53.12-2.02.35-1.33.32-2.53.86-3.73,1.72-.02.01-.03.02-.05.03-.09.07-.18.14-.28.21-.66.46-1.23.96-1.74,1.51-.09.09-.18.16-.27.26-3.03,3.03-2.45,8.42-2.45,8.42l14.68-.07h22.39c2.33,0,4.61-.55,6.85-1.65,5.8-3.64,8.7-8.12,8.7-13.46,0-2.58-.49-5.08-1.46-7.49-2.67-6.47-8.46-9.71-17.39-9.71Z"/>
      <path class="cls-1" d="m513.93,98.05c-.36-1.38-.93-2.54-1.62-3.5-.04-.06-.08-.12-.12-.18-.11-.15-.24-.29-.36-.43-.95-1.18-2.17-2.1-3.67-2.75-.25-.11-.5-.22-.74-.31-.11-.04-.21-.08-.32-.12-.55-.19-1.08-.32-1.58-.42-.04,0-.08-.02-.11-.02-.27-.05-.53-.08-.77-.11-1-.15-2.05-.25-3.2-.25h-15.04c-.46,0-.91-.03-1.37-.1-.01,0-.02,0-.03,0-1.36-.21-2.71-.71-4.06-1.52-3.19-2.01-4.83-5.17-4.83-5.17h23.69l3.55-.44c8.8-2.41,13.2-7.97,13.2-16.69l-.44-3.3c-3.05-8-8.06-12-15.04-12h-15.3c-2.28,0-5.46.76-9.52,2.28-9.77,5.88-14.66,13.58-14.66,23.1,0,3.94.76,7.6,2.29,10.98,5.16,9.91,12.66,15.05,22.49,15.45l-.05.04h28.08c.08-1.68-.09-3.12-.41-4.4-.01-.05-.02-.1-.03-.14Zm-15.17-27.25h-22.27c.53-1.32,1.87-3.98,4.43-5.76,1.79-1.15,3.8-1.73,6.03-1.73h12c4.36,0,4.61,3.06,4.61,4.12-.44,2.24-2.04,3.37-4.81,3.37Z"/>
      <path class="cls-1" d="m627.01,64.83c-3.68-9.52-11.51-14.28-23.48-14.28h-28.94s.32,11.87,11.68,11.87h15.17c3.34,0,5.94.17,7.81.51,4.1,1.48,6.16,4.08,6.16,7.81h-23.93l-3.11.25c-1.85.11-4.92,1.28-7.65,3.51-1.18.9-2.16,1.92-2.95,3.08-2.22,3.02-3.53,7.07-2.41,12.14,1.46,6.6,5.58,9.85,9.29,11.45,1.82.88,3.77,1.38,5.87,1.5.59.05.96.06.96.06h36.5v-31.99c0-1.9-.32-3.87-.95-5.9Zm-32.94,26.02c-4.44-.17-6.66-1.5-6.66-4v-.51c.51-2.5,2.18-3.75,5.01-3.75h22.98v4.7c0,2.16-1.18,3.34-3.55,3.55h-17.77Z"/>
      <path class="cls-1" d="m562.36,50.69h-.67s0-.01-.01-.01h-24.96s0,.01,0,.01c-.12,0-.43.02-.83.07l-.54.05s-.09.05-.13.07c-2.44.49-6.85,2.29-6.85,8.75v32.78c0,9.15,8.08,10.19,12.06,10.19h.32v-36.43c0-2.07.82-3.11,2.47-3.11h8.63c1.18,0,1.99-.1,2.41-.32.04-.01.08-.03.12-.05,2.03-.55,4.13-1.76,5.66-3.65.16-.2.3-.41.44-.62.12-.17.25-.32.36-.5.06-.1.12-.21.17-.31,0-.01.01-.02.02-.03,1.86-3.37,1.34-6.89,1.34-6.89Z"/>
    </g>
  </g>
</svg>