<?xml version="1.0" encoding="UTF-8"?>
<svg id="Layer_2" data-name="Layer 2" xmlns="http://www.w3.org/2000/svg" viewBox="0 0 354.63 310.62">
  <defs>
    <style>
      .cls-1 {
        fill: #5946b1;
      }

      .cls-1, .cls-2, .cls-3 {
        stroke-width: 0px;
      }

      .cls-2 {
        fill: #0a2182;
      }

      .cls-3 {
        fill: #dcbef7;
      }
    </style>
  </defs>
  <circle class="cls-1" cx="211.25" cy="160.28" r="134.4"/>
  <path class="cls-3" d="m333.88,219.12s-130.41,20.5-112.57-74.4c0,0,26.93,57.32,112.57,74.4Z"/>
  <path class="cls-2" d="m249.84,210.33c-47.51-18.8-22.76-89.86-22.76-89.86,0,0-29.93-22.12-71.57,15.04-35.13,31.35-68.27,38.48-77.78,39.94,7.54,67.08,64.43,119.23,133.53,119.23,52.94,0,98.71-30.62,120.62-75.1-19.52,2.06-51.82,2.71-82.04-9.25Z"/>
  <path class="cls-3" d="m245.49,143.67s-12.99-21.85-37.98-18.28c-26.07,3.72-45.55,22.59-74.35,34.76-86.9,36.72-122.46-.46-122.46-.46,0,0,35.91,22.31,117.4-37.75,43.34-31.95,102.71-47.95,117.4,21.73Z"/>
</svg>