<?xml version="1.0" encoding="UTF-8"?>
<svg id="Layer_2" data-name="Layer 2" xmlns="http://www.w3.org/2000/svg" viewBox="0 0 1165.44 256.82">
  <defs>
    <style>
      .cls-1 {
        fill: #5946b1;
      }

      .cls-1, .cls-2, .cls-3, .cls-4 {
        stroke-width: 0px;
      }

      .cls-2 {
        fill: #0a2181;
      }

      .cls-3 {
        fill: #0a2182;
      }

      .cls-4 {
        fill: #dcbef7;
      }
    </style>
  </defs>
  <g>
    <g>
      <path class="cls-2" d="m515.41,111.77c13.6,0,24.67,11.07,24.67,24.67s-11.07,24.67-24.67,24.67-24.67-11.07-24.67-24.67,11.07-24.67,24.67-24.67m0-22.97c-26.31,0-47.64,21.33-47.64,47.64s21.33,47.64,47.64,47.64,47.64-21.33,47.64-47.64-21.33-47.64-47.64-47.64h0Z"/>
      <path class="cls-2" d="m398.73,115.14c-6.56-16.96-20.5-25.44-41.83-25.44h-51.55s.56,21.14,20.8,21.14h27.02c5.95,0,10.59.3,13.91.9,7.31,2.64,10.97,7.27,10.97,13.91h-42.62l-5.54.45c-3.29.19-8.76,2.28-13.63,6.25-2.09,1.6-3.85,3.43-5.25,5.48-3.96,5.38-6.29,12.59-4.29,21.63,2.6,11.76,9.94,17.54,16.56,20.39,3.24,1.57,6.72,2.46,10.46,2.67,1.04.1,1.7.1,1.7.1h65v-56.98c0-3.39-.57-6.9-1.7-10.51Zm-58.67,46.35c-7.91-.3-11.87-2.67-11.87-7.12v-.9c.9-4.45,3.88-6.67,8.93-6.67h40.92v8.37c0,3.84-2.11,5.95-6.33,6.33h-31.65Z"/>
      <path class="cls-2" d="m448.16,182.42v-108.66c0-.98-.08-1.97-.23-2.95-2.25-16.92-23.4-19.81-23.4-19.81v107.83c0,17.78,14.2,22.45,23.63,23.58Z"/>
      <path class="cls-2" d="m661.19,101.69c-8.74-8.63-21.9-11.76-29.94-11.76l.03.03c-.24,0-.48-.03-.73-.03-5.96,0-12.14,1.24-18.54,3.73-18.31,8.93-27.63,22.94-28,42h-.04s0,1.19,0,1.19v26.8c0,12.95,10.31,19.11,22.58,19.11v-42.75c.05-3.04.44-10.1,2.86-15.2.45-.84.92-1.65,1.42-2.41,3.25-4.59,7.43-8.12,12.85-9.62.05-.01.11-.02.16-.04.83-.22,1.7-.4,2.59-.52,1.07-.14,2.17-.24,3.31-.24l4.99.66c5.83,1.49,11.46,5.36,14.71,10,.46.69.91,1.39,1.29,2.13.1.2.2.4.29.6,1.55,3.31,2.35,7.12,2.35,11.48v29.17c0,6.51,5.85,17.36,20.57,17.36h2.19v-49.81c0-13.89-6.23-23.25-14.97-31.88Z"/>
    </g>
    <g>
      <path class="cls-2" d="m767.93,124.86h-30.98c-4.22-.45-6.33-2.41-6.33-5.88v-.79c0-3.39,2.11-5.35,6.33-5.88h44.66l.45-.04c7.15-.27,17.83-2.61,20.52-22.45h-66.41c-.39,0-.78.04-1.18.06,0,0,.02-.03.02-.03-3.17,0-6.48.71-9.66,2.03-.09.03-.18.06-.27.09-.09.05-.17.1-.26.15-4.85,2.13-9.34,5.7-12.51,10.39-.19.26-.36.53-.54.8-.16.26-.33.53-.48.8-1.85,3-2.96,6.24-3.33,9.72-.16,1.18-.27,2.39-.27,3.64,0,3.45.5,6.74,1.45,9.82.04.18.06.34.1.52.08.2.18.39.26.59,2.48,7.05,7.53,12.75,15.08,16,.28.12.55.24.83.36.4.16.8.31,1.21.46.78.28,1.57.53,2.39.75.1.03.19.06.28.08,1.06.28,2.16.51,3.29.71.07.01.15.02.22.03,1.01.16,2.04.29,3.1.38.24.02.48.04.73.06,1.16.08,2.35.14,3.58.14h30.98c4.3,0,6.78,1.73,7.46,5.2v2.94c-1.21,3.17-4.03,4.75-8.48,4.75h-43.64c-1.53,0-2.72.22-3.6.63-2.36.56-4.5,1.54-6.64,3.07-.03.02-.06.04-.09.06-.16.12-.33.25-.49.37-1.17.81-2.19,1.72-3.09,2.7-.16.16-.32.29-.49.46-5.4,5.4-4.36,14.99-4.36,14.99l26.15-.12h39.88c4.14,0,8.21-.98,12.21-2.94,10.32-6.48,15.49-14.47,15.49-23.97,0-4.6-.87-9.04-2.6-13.34-4.75-11.53-15.07-17.3-30.98-17.3Z"/>
      <path class="cls-2" d="m917.08,174.31c-.65-2.46-1.65-4.52-2.89-6.24-.07-.11-.14-.21-.21-.32-.2-.27-.42-.52-.64-.77-1.69-2.1-3.87-3.74-6.54-4.9-.44-.2-.88-.38-1.32-.55-.19-.07-.38-.15-.57-.21-.98-.33-1.92-.57-2.82-.74-.07-.01-.13-.03-.2-.04-.48-.09-.94-.15-1.38-.2-1.78-.27-3.65-.44-5.7-.44h-26.79c-.81,0-1.63-.06-2.44-.18-.02,0-.04,0-.06-.01-2.41-.37-4.82-1.27-7.23-2.7-5.68-3.58-8.61-9.2-8.61-9.2h42.19l6.33-.79c15.68-4.29,23.52-14.2,23.52-29.73l-.79-5.88c-5.43-14.24-14.36-21.37-26.79-21.37h-27.25c-4.07,0-9.72,1.36-16.96,4.07-17.41,10.48-26.11,24.19-26.11,41.15,0,7.01,1.36,13.53,4.07,19.56,9.18,17.65,22.55,26.8,40.06,27.51l-.1.07h50.02c.14-2.99-.15-5.57-.72-7.84-.02-.09-.04-.17-.06-.26Zm-27.02-48.54h-39.66c.95-2.35,3.34-7.1,7.9-10.25,3.19-2.04,6.76-3.09,10.73-3.09h21.37c7.77,0,8.2,5.46,8.22,7.34-.79,3.98-3.63,6-8.56,6Z"/>
      <path class="cls-2" d="m1118.48,115.14c-6.56-16.96-20.5-25.44-41.83-25.44h-51.55s.56,21.14,20.8,21.14h27.02c5.95,0,10.59.3,13.91.9,7.31,2.64,10.97,7.27,10.97,13.91h-42.62l-5.54.45c-3.29.19-8.76,2.28-13.63,6.25-2.09,1.6-3.85,3.43-5.25,5.48-3.96,5.38-6.29,12.59-4.29,21.63,2.6,11.76,9.94,17.54,16.56,20.39,3.24,1.57,6.72,2.46,10.46,2.67,1.04.1,1.7.1,1.7.1h65v-56.98c0-3.39-.57-6.9-1.7-10.51Zm-58.67,46.35c-7.91-.3-11.87-2.67-11.87-7.12v-.9c.9-4.45,3.88-6.67,8.93-6.67h40.92v8.37c0,3.84-2.11,5.95-6.33,6.33h-31.65Z"/>
      <path class="cls-2" d="m1003.33,89.95h-1.19s-.01-.02-.03-.02h-44.2l-.26.02h0c-.22,0-.77.03-1.49.12l-.97.08c-.08.04-.15.08-.24.12-4.34.88-12.2,4.08-12.2,15.59v58.38c0,16.29,14.39,18.15,21.48,18.15h.57v-64.89c0-3.69,1.47-5.54,4.41-5.54h15.38c2.11,0,3.54-.19,4.3-.57.08-.03.14-.06.21-.09,3.62-.99,7.35-3.13,10.08-6.5.29-.35.53-.73.78-1.1.21-.3.44-.57.63-.89.11-.18.21-.37.31-.55.01-.02.02-.04.03-.06,3.32-5.99,2.39-12.27,2.39-12.27Z"/>
    </g>
  </g>
  <g>
    <circle class="cls-1" cx="158.1" cy="129.47" r="92"/>
    <path class="cls-4" d="m242.04,169.75s-89.26,14.03-77.05-50.92c0,0,18.43,39.23,77.05,50.92Z"/>
    <path class="cls-3" d="m184.51,163.73c-32.52-12.87-15.58-61.51-15.58-61.51,0,0-20.49-15.14-48.99,10.29-24.05,21.46-46.73,26.34-53.24,27.34,5.16,45.92,44.1,81.61,91.4,81.61,36.24,0,67.56-20.96,82.56-51.41-13.36,1.41-35.47,1.85-56.15-6.33Z"/>
    <path class="cls-4" d="m181.53,118.11s-8.89-14.95-26-12.51c-17.84,2.55-31.18,15.46-50.89,23.79-59.48,25.13-83.82-.32-83.82-.32,0,0,24.58,15.27,80.36-25.84,29.67-21.87,70.3-32.82,80.36,14.88Z"/>
  </g>
</svg>